<?xml version="1.0" encoding="UTF-8"?>
<svg width="3153px" height="696px" viewBox="0 0 3153 696" version="1.1" xmlns="http://www.w3.org/2000/svg" xmlns:xlink="http://www.w3.org/1999/xlink">
    <title>Artboard</title>
    <g id="Artboard" stroke="none" stroke-width="1" fill="none" fill-rule="evenodd">
        <path d="M400.102924,695.626019 C400.102924,695.141123 406.364899,691.154371 414.018564,686.768715 C466.396415,656.756697 507.437131,614.105566 523.502325,572.988929 C527.667417,562.329051 527.361114,561.703863 520.542615,566.950335 C508.032054,576.576905 470.024435,600.248911 445.750694,613.532404 C392.087127,642.898905 344.071185,661.187432 295.464337,670.774352 C276.5687,674.50161 230.902995,676.57214 220.32102,674.182008 L214.000614,672.754343 L220.32102,670.848981 C266.245119,657.003312 332.288768,625.326737 373.548481,597.356079 C420.621956,565.444253 459.121682,527.301139 484.332016,487.598402 C513.727273,441.305123 527.998604,391.967734 528.025003,336.549702 C528.035865,308.8446 526.616387,295.773098 521.556763,277.081754 C511.217229,238.886551 487.202425,213.046997 454.880424,205.338619 C438.635112,201.46444 411.034729,203.091884 390.271033,209.14822 C372.177796,214.425743 347.139788,225.514981 331.280152,235.275138 C291.582181,259.705349 258.9464,295.67353 261.653615,312.010932 C262.747718,318.615263 265.088076,320.87244 271.914546,321.909132 C278.805194,322.95532 295.588842,316.698422 311.473285,307.161241 C317.960749,303.266127 323.546836,300.394205 323.886927,300.779154 C325.233057,302.30323 316.489572,316.619235 308.841136,325.41383 C288.861867,348.386841 264.317278,352.184055 236.86003,336.549702 C232.012317,333.789268 225.791773,329.520165 223.036319,327.062754 C220.280992,324.605329 217.25459,322.372107 216.311088,322.100098 C215.292898,321.80613 212.729336,327.166173 209.999524,335.299807 C207.471354,342.831779 202.448625,354.361288 198.837531,360.920514 C191.969897,373.394963 176.767746,393.075166 169.430199,398.990389 L165.141575,402.447671 L166.092946,396.214361 C166.616756,392.785996 167.337737,388.192113 167.696169,386.005663 C168.987884,378.12598 166.860371,378.02395 153.604995,385.326304 C128.3117,399.261375 99.1899941,411.158369 70.1563894,419.417003 C55.4955425,423.587233 49.0157199,427.271557 40.5216474,436.266626 C29.78421,447.63718 21.9021755,473.131713 24.18985,489.091729 C25.3660544,497.297959 23.3921985,493.529662 18.1776925,477.61763 C13.154067,462.287094 6.5746485,447.558132 2.42429667,442.352195 C-1.03047528,438.018313 -0.886771698,436.585471 3.461812,431.998533 C16.0002113,418.774011 35.1185343,381.909935 37.623362,366.128471 C38.5584395,360.232694 39.887366,357.355772 42.7631554,354.997461 C81.3062562,323.38867 112.648958,287.455342 137.771279,246.073666 C159.326702,210.567601 175.958234,172.587343 188.088637,131.168088 C193.080344,114.124215 201.596988,75.8883642 202.923717,64.5654667 C203.425676,60.2817028 204.318073,56.4397498 204.907072,56.0276894 C206.944108,54.6024114 209.342784,75.2356743 210.087347,100.585407 C210.892578,128.010621 208.638426,151.398041 203.34903,170.494614 C201.888223,175.768398 200.685026,180.406212 200.674984,180.800973 C200.664084,181.195582 205.359781,173.682311 211.107786,164.104584 C226.603773,138.284148 238.533406,121.948325 258.175387,99.6530689 C286.222961,67.8168319 311.748137,46.7670764 342.946453,29.745378 C392.853327,2.51623175 442.09476,-5.71703355 498.069305,3.80842852 C506.75998,5.2872344 513.870383,7.09294086 513.870383,7.82095379 C513.870383,8.54842375 512.565342,9.144492 510.969281,9.144492 C505.830587,9.144492 488.202678,19.5796135 476.650058,29.4602618 C466.283367,38.3264802 440.521687,66.5504583 431.69447,78.712617 L427.943424,83.8805075 L442.667326,83.8805075 C498.964342,83.8805075 557.637009,102.593507 600.9522,134.363437 C619.665622,148.08893 634.240982,161.624228 648.707083,178.710125 C669.152602,202.859109 685.041845,228.361812 698.49203,258.616771 C703.542686,269.977551 703.606978,270.329997 700.439234,269.3089 C689.259356,265.705278 667.620833,260.21694 659.241009,258.859787 C648.584056,257.133937 619.347445,256.635113 615.927459,258.120952 C614.418174,258.777835 616.883631,262.097161 624.590978,269.793215 C667.364423,312.500247 701.933994,381.533509 713.84079,448.020298 C720.849892,487.158586 720.70754,538.482659 713.473226,580.796004 C710.996149,595.282013 704.557086,622.934458 703.662681,622.927008 C703.177648,622.923851 699.338437,615.234717 695.128884,605.841881 C684.747541,582.677879 670.097405,558.279918 659.079584,545.806353 C654.061895,540.125117 649.359225,535.477062 648.629528,535.477062 C647.899453,535.477062 647.303014,538.582795 647.303014,542.378493 C647.303014,558.968495 637.153325,588.720135 625.480457,606.346602 C594.383038,653.304971 537.807633,682.083662 456.987159,692.055342 C435.753967,694.674916 400.103051,696.912761 400.103051,695.625514 L400.102924,695.626019 Z M171.864292,280.987552 C176.499336,278.604302 181.319867,276.269932 182.576746,275.800278 C183.907163,275.303134 186.683141,269.248629 189.221113,261.307475 C196.838982,237.4726 196.883834,237.638121 185.788837,248.634105 C180.447831,253.927475 172.241052,261.542284 167.551455,265.555844 C156.585761,274.940964 150.508655,283.971126 145.877237,297.762521 C144.713032,301.228945 145.812818,300.660961 153.984382,293.544686 C159.183314,289.021757 167.229236,283.371092 171.864292,280.987552 L171.864292,280.987552 Z M436.679445,538.471041 C436.641552,537.929322 439.442868,532.725153 442.891653,526.902236 C458.9331,499.819796 472.454651,456.785421 479.667744,409.857611 C481.600423,397.285804 482.216692,385.304963 482.163263,361.358561 C482.112739,333.699222 481.690861,327.91641 479.01876,316.972034 C475.225527,301.43961 470.628705,292.36529 461.630969,282.649658 C430.396755,248.921848 383.896263,247.135019 330.383334,277.606123 C315.815894,285.901124 294.001686,301.463627 283.799768,310.839024 C280.4743,313.895219 277.430467,316.030036 277.03591,315.583161 C275.680837,314.049098 279.576636,300.923992 284.637434,289.973289 C290.124215,278.10049 305.155279,259.488295 315.914656,251.24441 C331.61797,239.21234 356.285497,227.568717 375.701736,223.0234 C422.327023,212.10837 466.843176,221.129882 488.633777,245.909647 C498.029012,256.593745 501.578593,264.49045 506.143206,284.862665 C522.450158,357.640396 504.724106,439.344705 456.997264,511.387212 C446.491379,527.24583 436.781883,540.188633 436.679445,538.471041 L436.679445,538.471041 Z M104.473807,503.56751 C95.1415496,501.801681 78.6107247,494.822591 74.2483352,490.806669 C71.2823096,488.076605 71.1733035,487.706998 73.5457956,488.428533 C80.3654064,490.501968 103.26269,492.524766 109.853805,491.636169 C116.971408,490.67648 117.411689,490.289195 137.452685,467.322939 C176.028425,423.117743 202.213296,380.568769 209.2985,350.577585 C211.218901,342.448118 211.984861,341.749944 214.787782,345.573537 C217.465655,349.22657 225.561003,353.483172 234.219418,355.791352 C244.742873,358.596549 276.18901,356.936665 293.357173,352.671477 C300.69582,350.847814 308.596535,348.924394 310.914007,348.396943 C313.231465,347.869114 299.958444,356.065242 281.418484,366.609705 C224.556846,398.949223 190.630108,423.875898 165.874732,451.502077 C149.574676,469.692741 142.705754,481.85668 140.458347,496.511266 C139.631139,501.907879 138.856009,503.015815 135.308184,503.876252 C129.423562,505.303286 112.764848,505.135214 104.473529,503.566879 L104.473807,503.56751 Z" id="path1073" fill="#FFFFFF" fill-rule="nonzero"></path>
        <path d="M1196,456 L1196,423 L1086.2,423 L1086.2,246 L1047.2,246 L1047.2,456 L1196,456 Z M1293.8,458.1 C1310.2,458.1 1324.9,454.6 1337.9,447.6 C1350.9,440.6 1361.05,430.85 1368.35,418.35 C1375.65,405.85 1379.3,391.7 1379.3,375.9 C1379.3,360.1 1375.65,346 1368.35,333.6 C1361.05,321.2 1350.9,311.5 1337.9,304.5 C1324.9,297.5 1310.2,294 1293.8,294 C1277.6,294 1263,297.5 1250,304.5 C1237,311.5 1226.85,321.2 1219.55,333.6 C1212.25,346 1208.6,360.1 1208.6,375.9 C1208.6,391.7 1212.25,405.85 1219.55,418.35 C1226.85,430.85 1237,440.6 1250,447.6 C1263,454.6 1277.6,458.1 1293.8,458.1 Z M1293.8,426 C1280,426 1268.65,421.4 1259.75,412.2 C1250.85,403 1246.4,390.9 1246.4,375.9 C1246.4,360.9 1250.85,348.8 1259.75,339.6 C1268.65,330.4 1280,325.8 1293.8,325.8 C1307.6,325.8 1319,330.4 1328,339.6 C1337,348.8 1341.5,360.9 1341.5,375.9 C1341.5,390.9 1337,403 1328,412.2 C1319,421.4 1307.6,426 1293.8,426 Z M1475.6,458.1 C1482.6,458.1 1489.25,457.2 1495.55,455.4 C1501.85,453.6 1507.2,450.9 1511.6,447.3 L1511.6,447.3 L1501.1,420.6 C1495.5,425 1488.5,427.2 1480.1,427.2 C1472.9,427.2 1467.4,425.15 1463.6,421.05 C1459.8,416.95 1457.9,411 1457.9,403.2 L1457.9,403.2 L1457.9,327 L1500.8,327 L1500.8,297 L1457.9,297 L1457.9,260.4 L1420.4,260.4 L1420.4,297 L1394,297 L1394,327 L1420.4,327 L1420.4,404.1 C1420.4,421.7 1425.2,435.1 1434.8,444.3 C1444.4,453.5 1458,458.1 1475.6,458.1 Z M1580,456 L1580,375 C1580,359.4 1584,347.45 1592,339.15 C1600,330.85 1610.9,326.7 1624.7,326.7 C1636.9,326.7 1646.3,330.25 1652.9,337.35 C1659.5,344.45 1662.8,355 1662.8,369 L1662.8,369 L1662.8,456 L1700.3,456 L1700.3,364.2 C1700.3,341 1694.2,323.5 1682,311.7 C1669.8,299.9 1653.6,294 1633.4,294 C1622.2,294 1612.05,295.75 1602.95,299.25 C1593.85,302.75 1586.2,307.8 1580,314.4 L1580,314.4 L1580,233.4 L1542.5,233.4 L1542.5,456 L1580,456 Z M1873.4,456 L1873.4,394.8 L1921.30816,394.79932 C1924.6551,394.790249 1927.18571,394.690476 1928.9,394.5 L1928.9,394.5 L1971.8,456 L2013.8,456 L1965.5,387 C1979.9,381.4 1990.95,372.9 1998.65,361.5 C2006.35,350.1 2010.2,336.5 2010.2,320.7 C2010.2,305.3 2006.6,292 1999.4,280.8 C1992.2,269.6 1981.85,261 1968.35,255 C1954.85,249 1939,246 1920.8,246 L1920.8,246 L1834.4,246 L1834.4,456 L1873.4,456 Z M1919,362.7 L1873.4,362.7 L1873.4,279 L1919,279 C1936,279 1948.9,282.6 1957.7,289.8 C1966.5,297 1970.9,307.3 1970.9,320.7 C1970.9,334.1 1966.5,344.45 1957.7,351.75 C1948.9,359.05 1936,362.7 1919,362.7 L1919,362.7 Z M2122.1,458.1 C2138.5,458.1 2153.2,454.6 2166.2,447.6 C2179.2,440.6 2189.35,430.85 2196.65,418.35 C2203.95,405.85 2207.6,391.7 2207.6,375.9 C2207.6,360.1 2203.95,346 2196.65,333.6 C2189.35,321.2 2179.2,311.5 2166.2,304.5 C2153.2,297.5 2138.5,294 2122.1,294 C2105.9,294 2091.3,297.5 2078.3,304.5 C2065.3,311.5 2055.15,321.2 2047.85,333.6 C2040.55,346 2036.9,360.1 2036.9,375.9 C2036.9,391.7 2040.55,405.85 2047.85,418.35 C2055.15,430.85 2065.3,440.6 2078.3,447.6 C2091.3,454.6 2105.9,458.1 2122.1,458.1 Z M2122.1,426 C2108.3,426 2096.95,421.4 2088.05,412.2 C2079.15,403 2074.7,390.9 2074.7,375.9 C2074.7,360.9 2079.15,348.8 2088.05,339.6 C2096.95,330.4 2108.3,325.8 2122.1,325.8 C2135.9,325.8 2147.3,330.4 2156.3,339.6 C2165.3,348.8 2169.8,360.9 2169.8,375.9 C2169.8,390.9 2165.3,403 2156.3,412.2 C2147.3,421.4 2135.9,426 2122.1,426 Z M2332.4,458.1 C2348,458.1 2361.95,454.7 2374.25,447.9 C2386.55,441.1 2396.2,431.45 2403.2,418.95 C2410.2,406.45 2413.7,392.1 2413.7,375.9 C2413.7,359.7 2410.2,345.4 2403.2,333 C2396.2,320.6 2386.55,311 2374.25,304.2 C2361.95,297.4 2348,294 2332.4,294 C2322,294 2312.45,295.8 2303.75,299.4 C2295.05,303 2287.5,308.3 2281.1,315.3 L2281.1,315.3 L2281.1,233.4 L2243.6,233.4 L2243.6,456 L2279.3,456 L2279.3,435.3 C2285.5,442.9 2293.15,448.6 2302.25,452.4 C2311.35,456.2 2321.4,458.1 2332.4,458.1 Z M2328.2,426 C2319.2,426 2311.1,423.95 2303.9,419.85 C2296.7,415.75 2291,409.9 2286.8,402.3 C2282.6,394.7 2280.5,385.9 2280.5,375.9 C2280.5,365.9 2282.6,357.1 2286.8,349.5 C2291,341.9 2296.7,336.05 2303.9,331.95 C2311.1,327.85 2319.2,325.8 2328.2,325.8 C2342,325.8 2353.35,330.4 2362.25,339.6 C2371.15,348.8 2375.6,360.9 2375.6,375.9 C2375.6,390.9 2371.15,403 2362.25,412.2 C2353.35,421.4 2342,426 2328.2,426 Z M2521.4,458.1 C2537.8,458.1 2552.5,454.6 2565.5,447.6 C2578.5,440.6 2588.65,430.85 2595.95,418.35 C2603.25,405.85 2606.9,391.7 2606.9,375.9 C2606.9,360.1 2603.25,346 2595.95,333.6 C2588.65,321.2 2578.5,311.5 2565.5,304.5 C2552.5,297.5 2537.8,294 2521.4,294 C2505.2,294 2490.6,297.5 2477.6,304.5 C2464.6,311.5 2454.45,321.2 2447.15,333.6 C2439.85,346 2436.2,360.1 2436.2,375.9 C2436.2,391.7 2439.85,405.85 2447.15,418.35 C2454.45,430.85 2464.6,440.6 2477.6,447.6 C2490.6,454.6 2505.2,458.1 2521.4,458.1 Z M2521.4,426 C2507.6,426 2496.25,421.4 2487.35,412.2 C2478.45,403 2474,390.9 2474,375.9 C2474,360.9 2478.45,348.8 2487.35,339.6 C2496.25,330.4 2507.6,325.8 2521.4,325.8 C2535.2,325.8 2546.6,330.4 2555.6,339.6 C2564.6,348.8 2569.1,360.9 2569.1,375.9 C2569.1,390.9 2564.6,403 2555.6,412.2 C2546.6,421.4 2535.2,426 2521.4,426 Z M2703.2,458.1 C2710.2,458.1 2716.85,457.2 2723.15,455.4 C2729.45,453.6 2734.8,450.9 2739.2,447.3 L2739.2,447.3 L2728.7,420.6 C2723.1,425 2716.1,427.2 2707.7,427.2 C2700.5,427.2 2695,425.15 2691.2,421.05 C2687.4,416.95 2685.5,411 2685.5,403.2 L2685.5,403.2 L2685.5,327 L2728.4,327 L2728.4,297 L2685.5,297 L2685.5,260.4 L2648,260.4 L2648,297 L2621.6,297 L2621.6,327 L2648,327 L2648,404.1 C2648,421.7 2652.8,435.1 2662.4,444.3 C2672,453.5 2685.6,458.1 2703.2,458.1 Z M2789,269.4 C2796,269.4 2801.75,267.15 2806.25,262.65 C2810.75,258.15 2813,252.6 2813,246 C2813,239.8 2810.7,234.65 2806.1,230.55 C2801.5,226.45 2795.8,224.4 2789,224.4 C2782.2,224.4 2776.5,226.55 2771.9,230.85 C2767.3,235.15 2765,240.5 2765,246.9 C2765,253.3 2767.3,258.65 2771.9,262.95 C2776.5,267.25 2782.2,269.4 2789,269.4 Z M2807.6,456 L2807.6,295.8 L2770.1,295.8 L2770.1,456 L2807.6,456 Z M2930.3,458.1 C2945.9,458.1 2959.65,454.85 2971.55,448.35 C2983.45,441.85 2992.5,432.6 2998.7,420.6 L2998.7,420.6 L2969.9,403.8 C2965.3,411.2 2959.55,416.75 2952.65,420.45 C2945.75,424.15 2938.2,426 2930,426 C2915.8,426 2904.15,421.45 2895.05,412.35 C2885.95,403.25 2881.4,391.1 2881.4,375.9 C2881.4,360.7 2886,348.55 2895.2,339.45 C2904.4,330.35 2916,325.8 2930,325.8 C2938.2,325.8 2945.75,327.65 2952.65,331.35 C2959.55,335.05 2965.3,340.6 2969.9,348 L2969.9,348 L2998.7,331.2 C2992.7,319.2 2983.75,310 2971.85,303.6 C2959.95,297.2 2946.1,294 2930.3,294 C2913.5,294 2898.55,297.5 2885.45,304.5 C2872.35,311.5 2862.1,321.2 2854.7,333.6 C2847.3,346 2843.6,360.1 2843.6,375.9 C2843.6,391.7 2847.3,405.85 2854.7,418.35 C2862.1,430.85 2872.4,440.6 2885.6,447.6 C2898.8,454.6 2913.7,458.1 2930.3,458.1 Z M3080.6,458.1 C3103,458.1 3120.7,453.6 3133.7,444.6 C3146.7,435.6 3153.2,423.6 3153.2,408.6 C3153.2,397.2 3150.25,388.4 3144.35,382.2 C3138.45,376 3131.4,371.6 3123.2,369 C3115,366.4 3104.5,364.1 3091.7,362.1 C3078.9,359.9 3069.45,357.55 3063.35,355.05 C3057.25,352.55 3054.2,348.3 3054.2,342.3 C3054.2,336.9 3057.05,332.55 3062.75,329.25 C3068.45,325.95 3076.8,324.3 3087.8,324.3 C3104.8,324.3 3120.1,328.3 3133.7,336.3 L3133.7,336.3 L3148.1,307.8 C3141.1,303.6 3132.1,300.25 3121.1,297.75 C3110.1,295.25 3099.1,294 3088.1,294 C3066.5,294 3049.35,298.55 3036.65,307.65 C3023.95,316.75 3017.6,328.9 3017.6,344.1 C3017.6,355.7 3020.65,364.75 3026.75,371.25 C3032.85,377.75 3040.05,382.3 3048.35,384.9 C3056.65,387.5 3067.4,389.8 3080.6,391.8 C3093.2,393.8 3102.35,395.9 3108.05,398.1 C3113.75,400.3 3116.6,404.2 3116.6,409.8 C3116.6,421.6 3105.4,427.5 3083,427.5 C3073.2,427.5 3063.25,426.05 3053.15,423.15 C3043.05,420.25 3034.4,416.4 3027.2,411.6 L3027.2,411.6 L3012.8,440.1 C3020.2,445.3 3030.1,449.6 3042.5,453 C3054.9,456.4 3067.6,458.1 3080.6,458.1 Z" id="LothRobotics" fill="#FFFFFF" fill-rule="nonzero"></path>
    </g>
</svg>